<svg xmlns="http://www.w3.org/2000/svg" viewBox="0 0 64 64" fill="none">
  <rect width="64" height="64" rx="16" fill="#111827" />
  <path
    d="M24 38c0-6.627 5.373-12 12-12 2.618 0 5.041.838 7.014 2.261A13.946 13.946 0 0 0 32 14c-7.732 0-14 6.268-14 14 0 5.114 2.742 9.588 6.835 12.03A11.945 11.945 0 0 1 24 38Z"
    fill="#F59E0B"
  />
  <path
    d="M34 18c5.523 0 10 4.477 10 10 0 2.95-1.278 5.6-3.31 7.43l-1.267 6.341-4.433-4.433A9.96 9.96 0 0 1 34 38c-5.523 0-10-4.477-10-10s4.477-10 10-10Z"
    fill="#FCD34D"
  />
</svg>
